<?xml version="1.0" encoding="UTF-8"?>
<!-- Created with Inkscape (http://www.inkscape.org/) -->
<svg width="120" height="120" version="1.1" viewBox="0 0 31.75 31.75" xmlns="http://www.w3.org/2000/svg">
 <g transform="translate(.15865 1.3697)">
  <g transform="matrix(1.2711 0 0 1.2711 -32.747 .52723)" fill="#5e9783">
   <path transform="matrix(.26458 0 0 .26458 22.611 -3.4663)" d="m59.328 12.441a32.85 32.85 0 0 0-32.85 32.85 32.85 32.85 0 0 0 32.85 32.852 32.85 32.85 0 0 0 16.953-4.7148c0.11805-0.32676 0.22557-0.68486 0.32031-1.0801a29.572 29.501 0 0 1-16.064 4.7344 29.572 29.501 0 0 1-29.572-29.502 29.572 29.501 0 0 1 29.572-29.502 29.572 29.501 0 0 1 29.572 29.502 29.572 29.501 0 0 1-3.7832 14.422c0.10982 0.52299 0.2094 1.049 0.29297 1.5762a32.85 32.85 0 0 0 5.5586-18.287 32.85 32.85 0 0 0-32.85-32.85z" stroke-width="3.7795"/>
   <path d="m40.135 16.983c0.34606-0.08539 0.64543-0.11804 0.97478-0.01834 0.31658 0.09314 0.68236 0.33125 0.99709 0.43057 0.09395 0.02263 0.18686 0.07978 0.28496 0.08071 0.50574-0.66997 1.7736-1.5558 3.2369-2.2514-0.01931-6e-3 -0.03793-0.01503-0.05794-0.018-0.01831-0.0027-0.03702 0.0012-0.05553 0.0012-0.08155-3.97e-4 -0.16274-0.0086-0.24367-0.01802-0.14933-0.01717-0.29931-0.02458-0.44808-0.04692-0.15631-0.02347-0.2327-0.04141-0.38812-0.07862-0.06798-0.01628-0.13563-0.03389-0.20344-0.05083-0.06799-0.01877-0.13672-0.035-0.20395-0.05631-0.24184-0.07665-0.46773-0.19212-0.69888-0.29464-0.02739 1.2537-1.7863 1.7071-3.1941 2.3207z"/>
  </g>
  <g transform="matrix(1.2711 0 0 1.2711 -4.0771 -3.8786)" fill="#70a894">
   <path transform="scale(.26458)" d="m31.199 85.314-2.5996 6.8086c1.0138 0.62421 2.1763 1.2477 3.4531 1.8633h2.6777l0.50586 1.4277c0.61467 0.25733 1.2482 0.51105 1.8926 0.76367l-4.1406-10.863zm0.89062 1.5547 2.1484 5.8047h-4.2891zm-4.1641 7.0215-1.1797 3.0879h1.6641l0.83008-2.3379c-0.45546-0.24834-0.89485-0.49707-1.3145-0.75z"/>
   <path d="m11.7 22.573h0.41754v2.7347h1.5028v0.3514h-1.9203z" stroke-width=".26458"/>
   <g>
    <path transform="scale(.26458)" d="m58.223 86.229v10.75h1.5781v-10.301c-0.5265-0.15244-1.0523-0.30206-1.5781-0.44922z"/>
    <path transform="scale(.26458)" d="m71.605 85.104c-1.276 0-2.2786 0.29688-3.0078 0.89062-0.40557 0.33262-0.69859 0.7332-0.87695 1.2031 0.49348 0.16209 0.98099 0.32802 1.4707 0.49219 0.10746-0.32493 0.30731-0.59309 0.60156-0.80469 0.46875-0.33334 1.1328-0.5 1.9922-0.5 0.49479 0 1.0078 0.07031 1.5391 0.21094 0.53125 0.14062 1.0964 0.35417 1.6953 0.64062v-1.5391c-0.59375-0.19793-1.1745-0.34636-1.7422-0.44531-0.56771-0.09895-1.125-0.14844-1.6719-0.14844zm-4.0391 3.9902c0.10205 0.58031 0.34686 1.0555 0.73438 1.4238 0.52604 0.49999 1.3776 0.86718 2.5547 1.1016l0.96094 0.1875c0.80208 0.16146 1.3776 0.40365 1.7266 0.72656 0.35417 0.32292 0.53125 0.77083 0.53125 1.3438 0 0.65625-0.24479 1.1615-0.73438 1.5156-0.48958 0.35417-1.1849 0.53125-2.0859 0.53125-0.59375 0-1.1979-0.09114-1.8125-0.27344-0.61458-0.18229-1.2422-0.45312-1.8828-0.8125v1.625c0.66667 0.24479 1.3099 0.42969 1.9297 0.55469 0.625 0.125 1.2135 0.1875 1.7656 0.1875 1.4635 0 2.5729-0.29167 3.3281-0.875 0.76042-0.58333 1.1406-1.4401 1.1406-2.5703 0-0.84394-0.22406-1.5358-0.66992-2.0742-2.3535-0.8528-4.861-1.7248-7.4863-2.5918z"/>
    <path transform="scale(.26458)" d="m86.277 85.314-2.8809 7.5449c0.98535 0.38501 1.9409 0.7605 2.8555 1.127h3.5566l0.60156 1.6973c0.67329 0.27958 1.3107 0.54684 1.9121 0.80078l-4.2559-11.17zm0.89062 1.5547 2.1484 5.8047h-4.2891zm-4.4336 7.7246-0.91016 2.3848h1.6641l0.64844-1.8281c-0.45384-0.18209-0.92611-0.36846-1.4023-0.55664z"/>
   </g>
  </g>
 </g>
</svg>
